<?xml version="1.0" encoding="utf-8"?>
<!-- Generator: Adobe Illustrator 25.2.0, SVG Export Plug-In . SVG Version: 6.00 Build 0)  -->
<svg version="1.1" id="Layer_1" xmlns="http://www.w3.org/2000/svg" xmlns:xlink="http://www.w3.org/1999/xlink" x="0px" y="0px"
	 viewBox="0 0 100 100" style="enable-background:new 0 0 100 100;" xml:space="preserve">
<style type="text/css">
	.st0{fill:#7E6242;}
</style>
<path class="st0" d="M77.1,27.5l-4.6-4.6C70.6,21.1,68,20,65.4,20H26.9c-3.8,0-6.9,3.1-6.9,6.9v46.2c0,3.8,3.1,6.9,6.9,6.9h46.2
	c3.8,0,6.9-3.1,6.9-6.9V34.6C80,32,78.9,29.4,77.1,27.5z M30,35.6v-6.2c0-1,0.8-1.9,1.9-1.9h26.2c1,0,1.9,0.8,1.9,1.9v6.2
	c0,1-0.8,1.9-1.9,1.9H31.9C30.8,37.5,30,36.7,30,35.6z M50,70c-6.2,0-11.2-5-11.2-11.2c0-6.2,5-11.2,11.2-11.2s11.2,5,11.2,11.2
	C61.2,65,56.2,70,50,70z"/>
</svg>
